<?xml version="1.0" encoding="UTF-8"?>
<svg xmlns="http://www.w3.org/2000/svg" xmlns:xlink="http://www.w3.org/1999/xlink" width="854" height="480" viewBox="0 0 854 480">
<defs>
<g>
<g id="glyph-0-0">
<path d="M 0.429688 -3.097656 C 0.429688 -4.15625 0.714844 -4.980469 1.28125 -5.578125 C 1.847656 -6.175781 2.578125 -6.476562 3.476562 -6.476562 C 4.0625 -6.476562 4.59375 -6.335938 5.066406 -6.054688 C 5.539062 -5.773438 5.898438 -5.382812 6.144531 -4.882812 C 6.390625 -4.378906 6.515625 -3.808594 6.515625 -3.171875 C 6.515625 -2.527344 6.386719 -1.949219 6.125 -1.441406 C 5.863281 -0.933594 5.496094 -0.546875 5.019531 -0.285156 C 4.539062 -0.0234375 4.023438 0.109375 3.472656 0.109375 C 2.875 0.109375 2.339844 -0.0351562 1.867188 -0.324219 C 1.394531 -0.613281 1.039062 -1.011719 0.792969 -1.511719 C 0.550781 -2.011719 0.429688 -2.539062 0.429688 -3.097656 Z M 1.296875 -3.085938 C 1.296875 -2.320312 1.503906 -1.714844 1.917969 -1.273438 C 2.328125 -0.832031 2.847656 -0.613281 3.46875 -0.613281 C 4.101562 -0.613281 4.625 -0.835938 5.03125 -1.28125 C 5.441406 -1.726562 5.648438 -2.359375 5.648438 -3.175781 C 5.648438 -3.695312 5.558594 -4.148438 5.382812 -4.535156 C 5.207031 -4.921875 4.953125 -5.21875 4.617188 -5.433594 C 4.28125 -5.644531 3.902344 -5.75 3.480469 -5.75 C 2.886719 -5.75 2.371094 -5.546875 1.941406 -5.136719 C 1.511719 -4.726562 1.296875 -4.042969 1.296875 -3.085938 Z "/>
</g>
<g id="glyph-0-1">
<path d="M 0.585938 0 L 0.585938 -4.609375 L 1.289062 -4.609375 L 1.289062 -3.953125 C 1.628906 -4.460938 2.117188 -4.714844 2.757812 -4.714844 C 3.035156 -4.714844 3.289062 -4.664062 3.523438 -4.5625 C 3.753906 -4.464844 3.929688 -4.332031 4.046875 -4.171875 C 4.160156 -4.007812 4.242188 -3.816406 4.289062 -3.59375 C 4.316406 -3.449219 4.332031 -3.195312 4.332031 -2.835938 L 4.332031 0 L 3.550781 0 L 3.550781 -2.804688 C 3.550781 -3.121094 3.519531 -3.359375 3.460938 -3.519531 C 3.398438 -3.675781 3.289062 -3.800781 3.136719 -3.894531 C 2.980469 -3.988281 2.800781 -4.035156 2.589844 -4.035156 C 2.257812 -4.035156 1.972656 -3.929688 1.730469 -3.71875 C 1.488281 -3.507812 1.367188 -3.109375 1.367188 -2.515625 L 1.367188 0 Z "/>
</g>
<g id="glyph-0-2">
<path d="M 3.742188 -1.484375 L 4.550781 -1.382812 C 4.421875 -0.914062 4.1875 -0.546875 3.839844 -0.285156 C 3.496094 -0.0273438 3.058594 0.105469 2.523438 0.105469 C 1.847656 0.105469 1.3125 -0.101562 0.917969 -0.519531 C 0.523438 -0.933594 0.324219 -1.515625 0.324219 -2.265625 C 0.324219 -3.042969 0.523438 -3.644531 0.925781 -4.070312 C 1.324219 -4.5 1.84375 -4.714844 2.476562 -4.714844 C 3.09375 -4.714844 3.597656 -4.503906 3.988281 -4.085938 C 4.378906 -3.664062 4.574219 -3.074219 4.574219 -2.3125 C 4.574219 -2.265625 4.574219 -2.199219 4.570312 -2.105469 L 1.132812 -2.105469 C 1.160156 -1.597656 1.304688 -1.210938 1.5625 -0.941406 C 1.820312 -0.671875 2.140625 -0.539062 2.527344 -0.539062 C 2.8125 -0.539062 3.058594 -0.613281 3.261719 -0.765625 C 3.464844 -0.914062 3.621094 -1.15625 3.742188 -1.484375 Z M 1.175781 -2.746094 L 3.75 -2.746094 C 3.714844 -3.136719 3.617188 -3.425781 3.457031 -3.621094 C 3.207031 -3.921875 2.882812 -4.070312 2.488281 -4.070312 C 2.128906 -4.070312 1.828125 -3.953125 1.582031 -3.710938 C 1.335938 -3.472656 1.203125 -3.148438 1.175781 -2.746094 Z "/>
</g>
<g id="glyph-0-3">
<path d="M 0.28125 -1.910156 L 0.28125 -2.695312 L 2.683594 -2.695312 L 2.683594 -1.910156 Z "/>
</g>
<g id="glyph-0-4">
<path d="M 0.585938 0 L 0.585938 -6.363281 L 1.367188 -6.363281 L 1.367188 -4.082031 C 1.730469 -4.503906 2.191406 -4.714844 2.746094 -4.714844 C 3.089844 -4.714844 3.386719 -4.648438 3.636719 -4.511719 C 3.890625 -4.378906 4.070312 -4.191406 4.179688 -3.953125 C 4.285156 -3.714844 4.339844 -3.371094 4.339844 -2.921875 L 4.339844 0 L 3.558594 0 L 3.558594 -2.921875 C 3.558594 -3.3125 3.476562 -3.597656 3.304688 -3.773438 C 3.136719 -3.953125 2.898438 -4.042969 2.585938 -4.042969 C 2.355469 -4.042969 2.136719 -3.980469 1.933594 -3.859375 C 1.730469 -3.742188 1.585938 -3.578125 1.496094 -3.371094 C 1.410156 -3.167969 1.367188 -2.882812 1.367188 -2.523438 L 1.367188 0 Z "/>
</g>
<g id="glyph-0-5">
<path d="M 0.296875 -2.304688 C 0.296875 -3.160156 0.53125 -3.789062 1.007812 -4.203125 C 1.402344 -4.542969 1.886719 -4.714844 2.457031 -4.714844 C 3.089844 -4.714844 3.609375 -4.507812 4.011719 -4.089844 C 4.414062 -3.675781 4.613281 -3.101562 4.613281 -2.371094 C 4.613281 -1.777344 4.523438 -1.308594 4.347656 -0.96875 C 4.167969 -0.628906 3.910156 -0.367188 3.570312 -0.179688 C 3.230469 0.0078125 2.859375 0.105469 2.457031 0.105469 C 1.8125 0.105469 1.289062 -0.101562 0.890625 -0.515625 C 0.492188 -0.929688 0.296875 -1.527344 0.296875 -2.304688 Z M 1.097656 -2.304688 C 1.097656 -1.714844 1.226562 -1.273438 1.484375 -0.980469 C 1.742188 -0.6875 2.066406 -0.539062 2.457031 -0.539062 C 2.84375 -0.539062 3.167969 -0.6875 3.425781 -0.980469 C 3.683594 -1.277344 3.8125 -1.726562 3.8125 -2.332031 C 3.8125 -2.902344 3.679688 -3.332031 3.421875 -3.625 C 3.164062 -3.917969 2.839844 -4.066406 2.457031 -4.066406 C 2.066406 -4.066406 1.742188 -3.921875 1.484375 -3.628906 C 1.226562 -3.335938 1.097656 -2.894531 1.097656 -2.304688 Z "/>
</g>
<g id="glyph-0-6">
<path d="M 2.292969 -0.699219 L 2.40625 -0.0078125 C 2.183594 0.0390625 1.988281 0.0625 1.8125 0.0625 C 1.53125 0.0625 1.3125 0.015625 1.15625 -0.0742188 C 1 -0.164062 0.886719 -0.28125 0.824219 -0.425781 C 0.761719 -0.574219 0.730469 -0.882812 0.730469 -1.351562 L 0.730469 -4.003906 L 0.15625 -4.003906 L 0.15625 -4.609375 L 0.730469 -4.609375 L 0.730469 -5.75 L 1.507812 -6.21875 L 1.507812 -4.609375 L 2.292969 -4.609375 L 2.292969 -4.003906 L 1.507812 -4.003906 L 1.507812 -1.304688 C 1.507812 -1.082031 1.519531 -0.941406 1.546875 -0.875 C 1.574219 -0.8125 1.621094 -0.761719 1.683594 -0.726562 C 1.746094 -0.6875 1.832031 -0.667969 1.949219 -0.667969 C 2.035156 -0.667969 2.148438 -0.679688 2.292969 -0.699219 Z "/>
</g>
<g id="glyph-0-7">
<rect x="0" y="0" width="0" height="0" mask="url(#mask-0)"/>
</g>
<g id="glyph-0-8">
<path d="M 0.828125 0 L 0.828125 -6.363281 L 1.671875 -6.363281 L 1.671875 0 Z "/>
</g>
<g id="glyph-0-9">
<path d="M 0.6875 0 L 0.6875 -6.363281 L 2.878906 -6.363281 C 3.371094 -6.363281 3.75 -6.332031 4.011719 -6.273438 C 4.375 -6.1875 4.6875 -6.035156 4.945312 -5.816406 C 5.28125 -5.53125 5.53125 -5.171875 5.695312 -4.730469 C 5.863281 -4.289062 5.945312 -3.785156 5.945312 -3.214844 C 5.945312 -2.734375 5.890625 -2.304688 5.777344 -1.929688 C 5.664062 -1.558594 5.519531 -1.25 5.34375 -1.003906 C 5.167969 -0.761719 4.972656 -0.566406 4.765625 -0.425781 C 4.554688 -0.285156 4.300781 -0.179688 4.003906 -0.109375 C 3.707031 -0.0351562 3.367188 0 2.980469 0 Z M 1.527344 -0.75 L 2.886719 -0.75 C 3.304688 -0.75 3.636719 -0.789062 3.875 -0.867188 C 4.113281 -0.945312 4.304688 -1.054688 4.445312 -1.199219 C 4.644531 -1.398438 4.800781 -1.667969 4.910156 -2.003906 C 5.023438 -2.339844 5.078125 -2.75 5.078125 -3.230469 C 5.078125 -3.894531 4.96875 -4.40625 4.75 -4.765625 C 4.53125 -5.121094 4.265625 -5.359375 3.953125 -5.480469 C 3.726562 -5.570312 3.367188 -5.613281 2.863281 -5.613281 L 1.527344 -5.613281 Z "/>
</g>
<g id="glyph-0-10">
<path d="M 0.273438 -1.375 L 1.046875 -1.496094 C 1.089844 -1.1875 1.210938 -0.949219 1.410156 -0.785156 C 1.605469 -0.621094 1.882812 -0.539062 2.238281 -0.539062 C 2.597656 -0.539062 2.863281 -0.609375 3.039062 -0.757812 C 3.210938 -0.902344 3.300781 -1.074219 3.300781 -1.273438 C 3.300781 -1.449219 3.222656 -1.585938 3.070312 -1.6875 C 2.960938 -1.757812 2.695312 -1.847656 2.269531 -1.953125 C 1.695312 -2.097656 1.300781 -2.222656 1.078125 -2.328125 C 0.855469 -2.433594 0.6875 -2.582031 0.574219 -2.765625 C 0.460938 -2.953125 0.402344 -3.160156 0.402344 -3.386719 C 0.402344 -3.589844 0.449219 -3.78125 0.542969 -3.957031 C 0.636719 -4.132812 0.765625 -4.277344 0.929688 -4.394531 C 1.050781 -4.484375 1.214844 -4.558594 1.425781 -4.621094 C 1.636719 -4.683594 1.859375 -4.714844 2.101562 -4.714844 C 2.460938 -4.714844 2.78125 -4.660156 3.054688 -4.558594 C 3.328125 -4.453125 3.527344 -4.3125 3.660156 -4.132812 C 3.789062 -3.957031 3.878906 -3.71875 3.929688 -3.421875 L 3.164062 -3.316406 C 3.128906 -3.554688 3.027344 -3.738281 2.863281 -3.871094 C 2.695312 -4.003906 2.460938 -4.070312 2.15625 -4.070312 C 1.796875 -4.070312 1.542969 -4.011719 1.390625 -3.894531 C 1.234375 -3.773438 1.160156 -3.636719 1.160156 -3.476562 C 1.160156 -3.375 1.191406 -3.285156 1.253906 -3.203125 C 1.316406 -3.121094 1.417969 -3.050781 1.554688 -2.996094 C 1.632812 -2.964844 1.863281 -2.898438 2.242188 -2.796875 C 2.796875 -2.648438 3.183594 -2.527344 3.402344 -2.433594 C 3.621094 -2.339844 3.789062 -2.203125 3.914062 -2.023438 C 4.039062 -1.84375 4.101562 -1.621094 4.101562 -1.355469 C 4.101562 -1.09375 4.027344 -0.847656 3.875 -0.617188 C 3.722656 -0.386719 3.503906 -0.210938 3.214844 -0.0859375 C 2.929688 0.0390625 2.605469 0.105469 2.242188 0.105469 C 1.644531 0.105469 1.1875 -0.0195312 0.875 -0.269531 C 0.5625 -0.519531 0.359375 -0.886719 0.273438 -1.375 Z "/>
</g>
<g id="glyph-0-11">
<path d="M 0.589844 -5.464844 L 0.589844 -6.363281 L 1.371094 -6.363281 L 1.371094 -5.464844 Z M 0.589844 0 L 0.589844 -4.609375 L 1.371094 -4.609375 L 1.371094 0 Z "/>
</g>
<g id="glyph-0-12">
<path d="M 3.578125 0 L 3.578125 -0.582031 C 3.285156 -0.125 2.855469 0.105469 2.289062 0.105469 C 1.921875 0.105469 1.582031 0.00390625 1.273438 -0.199219 C 0.964844 -0.402344 0.726562 -0.683594 0.558594 -1.046875 C 0.390625 -1.410156 0.304688 -1.828125 0.304688 -2.300781 C 0.304688 -2.761719 0.378906 -3.179688 0.535156 -3.554688 C 0.6875 -3.929688 0.917969 -4.214844 1.222656 -4.414062 C 1.53125 -4.613281 1.875 -4.714844 2.253906 -4.714844 C 2.53125 -4.714844 2.777344 -4.65625 2.996094 -4.539062 C 3.210938 -4.421875 3.386719 -4.269531 3.523438 -4.082031 L 3.523438 -6.363281 L 4.300781 -6.363281 L 4.300781 0 Z M 1.105469 -2.300781 C 1.105469 -1.710938 1.230469 -1.269531 1.480469 -0.976562 C 1.730469 -0.683594 2.023438 -0.539062 2.359375 -0.539062 C 2.703125 -0.539062 2.992188 -0.679688 3.230469 -0.957031 C 3.46875 -1.238281 3.589844 -1.664062 3.589844 -2.234375 C 3.589844 -2.867188 3.46875 -3.328125 3.226562 -3.625 C 2.984375 -3.917969 2.683594 -4.066406 2.328125 -4.066406 C 1.980469 -4.066406 1.6875 -3.925781 1.457031 -3.640625 C 1.222656 -3.359375 1.105469 -2.910156 1.105469 -2.300781 Z "/>
</g>
<g id="glyph-0-13">
<path d="M 0.773438 0 L 0.773438 -4.003906 L 0.0820312 -4.003906 L 0.0820312 -4.609375 L 0.773438 -4.609375 L 0.773438 -5.101562 C 0.773438 -5.410156 0.800781 -5.640625 0.855469 -5.789062 C 0.929688 -5.992188 1.0625 -6.15625 1.253906 -6.28125 C 1.441406 -6.410156 1.707031 -6.472656 2.046875 -6.472656 C 2.269531 -6.472656 2.511719 -6.445312 2.777344 -6.394531 L 2.660156 -5.710938 C 2.5 -5.742188 2.34375 -5.753906 2.199219 -5.753906 C 1.964844 -5.753906 1.796875 -5.703125 1.695312 -5.605469 C 1.597656 -5.503906 1.550781 -5.3125 1.550781 -5.035156 L 1.550781 -4.609375 L 2.449219 -4.609375 L 2.449219 -4.003906 L 1.550781 -4.003906 L 1.550781 0 Z "/>
</g>
<g id="glyph-0-14">
<path d="M 0.550781 1.773438 L 0.464844 1.042969 C 0.636719 1.089844 0.785156 1.109375 0.910156 1.109375 C 1.085938 1.109375 1.222656 1.082031 1.328125 1.023438 C 1.433594 0.964844 1.519531 0.886719 1.585938 0.78125 C 1.632812 0.703125 1.714844 0.507812 1.824219 0.199219 C 1.839844 0.15625 1.859375 0.09375 1.890625 0.0078125 L 0.144531 -4.609375 L 0.984375 -4.609375 L 1.945312 -1.941406 C 2.070312 -1.601562 2.179688 -1.246094 2.277344 -0.871094 C 2.367188 -1.230469 2.476562 -1.582031 2.601562 -1.921875 L 3.585938 -4.609375 L 4.367188 -4.609375 L 2.613281 0.078125 C 2.425781 0.585938 2.277344 0.933594 2.175781 1.125 C 2.035156 1.382812 1.875 1.570312 1.695312 1.691406 C 1.515625 1.8125 1.304688 1.871094 1.054688 1.871094 C 0.902344 1.871094 0.738281 1.839844 0.550781 1.773438 Z "/>
</g>
<g id="glyph-0-15">
<path d="M 1.4375 0 L 0.0273438 -4.609375 L 0.832031 -4.609375 L 1.566406 -1.949219 L 1.839844 -0.960938 C 1.851562 -1.007812 1.929688 -1.324219 2.078125 -1.910156 L 2.8125 -4.609375 L 3.617188 -4.609375 L 4.304688 -1.9375 L 4.535156 -1.054688 L 4.800781 -1.945312 L 5.589844 -4.609375 L 6.351562 -4.609375 L 4.910156 0 L 4.097656 0 L 3.363281 -2.761719 L 3.1875 -3.546875 L 2.253906 0 Z "/>
</g>
<g id="glyph-0-16">
<path d="M 0.578125 0 L 0.578125 -4.609375 L 1.28125 -4.609375 L 1.28125 -3.910156 C 1.460938 -4.238281 1.625 -4.453125 1.777344 -4.558594 C 1.929688 -4.664062 2.097656 -4.714844 2.277344 -4.714844 C 2.542969 -4.714844 2.808594 -4.628906 3.082031 -4.460938 L 2.8125 -3.738281 C 2.621094 -3.851562 2.429688 -3.90625 2.238281 -3.90625 C 2.070312 -3.90625 1.914062 -3.855469 1.78125 -3.753906 C 1.644531 -3.648438 1.546875 -3.507812 1.488281 -3.324219 C 1.402344 -3.046875 1.359375 -2.742188 1.359375 -2.414062 L 1.359375 0 Z "/>
</g>
<g id="glyph-0-17">
<path d="M 0.808594 0 L 0.808594 -0.890625 L 1.695312 -0.890625 L 1.695312 0 Z "/>
</g>
<g id="glyph-0-18">
<path d="M 1.867188 0 L 0.113281 -4.609375 L 0.9375 -4.609375 L 1.925781 -1.847656 C 2.035156 -1.550781 2.132812 -1.242188 2.222656 -0.921875 C 2.292969 -1.164062 2.390625 -1.457031 2.511719 -1.796875 L 3.539062 -4.609375 L 4.339844 -4.609375 L 2.597656 0 Z "/>
</g>
<g id="glyph-0-19">
<path d="M 3.59375 -1.6875 L 4.363281 -1.589844 C 4.277344 -1.058594 4.0625 -0.644531 3.71875 -0.34375 C 3.371094 -0.046875 2.949219 0.105469 2.445312 0.105469 C 1.8125 0.105469 1.304688 -0.101562 0.921875 -0.515625 C 0.539062 -0.925781 0.347656 -1.519531 0.347656 -2.289062 C 0.347656 -2.785156 0.429688 -3.222656 0.59375 -3.59375 C 0.757812 -3.96875 1.011719 -4.246094 1.347656 -4.433594 C 1.683594 -4.621094 2.050781 -4.714844 2.449219 -4.714844 C 2.949219 -4.714844 3.359375 -4.585938 3.675781 -4.335938 C 3.996094 -4.082031 4.199219 -3.722656 4.289062 -3.253906 L 3.527344 -3.136719 C 3.457031 -3.449219 3.328125 -3.679688 3.144531 -3.835938 C 2.960938 -3.992188 2.738281 -4.070312 2.476562 -4.070312 C 2.085938 -4.070312 1.765625 -3.929688 1.519531 -3.648438 C 1.273438 -3.367188 1.148438 -2.917969 1.148438 -2.308594 C 1.148438 -1.691406 1.269531 -1.238281 1.507812 -0.960938 C 1.742188 -0.679688 2.054688 -0.539062 2.433594 -0.539062 C 2.742188 -0.539062 2.996094 -0.632812 3.203125 -0.820312 C 3.410156 -1.007812 3.539062 -1.296875 3.59375 -1.6875 Z "/>
</g>
<g id="glyph-0-20">
<path d="M 3.59375 -0.570312 C 3.304688 -0.324219 3.027344 -0.148438 2.757812 -0.046875 C 2.492188 0.0546875 2.203125 0.105469 1.898438 0.105469 C 1.390625 0.105469 1 -0.0195312 0.730469 -0.265625 C 0.457031 -0.515625 0.320312 -0.832031 0.320312 -1.214844 C 0.320312 -1.441406 0.371094 -1.648438 0.476562 -1.832031 C 0.578125 -2.019531 0.710938 -2.171875 0.878906 -2.28125 C 1.046875 -2.394531 1.234375 -2.480469 1.441406 -2.539062 C 1.59375 -2.578125 1.824219 -2.617188 2.136719 -2.65625 C 2.765625 -2.730469 3.230469 -2.820312 3.527344 -2.925781 C 3.53125 -3.03125 3.535156 -3.101562 3.535156 -3.128906 C 3.535156 -3.449219 3.460938 -3.671875 3.3125 -3.800781 C 3.113281 -3.976562 2.816406 -4.066406 2.421875 -4.066406 C 2.054688 -4.066406 1.785156 -4.003906 1.609375 -3.875 C 1.433594 -3.746094 1.304688 -3.515625 1.21875 -3.191406 L 0.457031 -3.292969 C 0.527344 -3.621094 0.640625 -3.886719 0.796875 -4.085938 C 0.957031 -4.289062 1.1875 -4.441406 1.488281 -4.550781 C 1.789062 -4.660156 2.136719 -4.714844 2.535156 -4.714844 C 2.929688 -4.714844 3.25 -4.667969 3.496094 -4.574219 C 3.742188 -4.480469 3.921875 -4.367188 4.035156 -4.226562 C 4.152344 -4.085938 4.234375 -3.90625 4.28125 -3.695312 C 4.304688 -3.5625 4.320312 -3.320312 4.320312 -2.972656 L 4.320312 -1.929688 C 4.320312 -1.203125 4.335938 -0.746094 4.367188 -0.554688 C 4.402344 -0.363281 4.46875 -0.175781 4.566406 0 L 3.75 0 C 3.667969 -0.160156 3.617188 -0.351562 3.59375 -0.570312 Z M 3.527344 -2.3125 C 3.246094 -2.199219 2.820312 -2.097656 2.253906 -2.019531 C 1.933594 -1.972656 1.703125 -1.921875 1.570312 -1.863281 C 1.4375 -1.804688 1.335938 -1.71875 1.261719 -1.609375 C 1.191406 -1.496094 1.15625 -1.375 1.15625 -1.238281 C 1.15625 -1.027344 1.234375 -0.855469 1.390625 -0.714844 C 1.546875 -0.578125 1.78125 -0.507812 2.082031 -0.507812 C 2.382812 -0.507812 2.652344 -0.574219 2.886719 -0.707031 C 3.121094 -0.835938 3.292969 -1.015625 3.402344 -1.246094 C 3.488281 -1.421875 3.527344 -1.683594 3.527344 -2.027344 Z "/>
</g>
<g id="glyph-0-21">
<path d="M 0.585938 0 L 0.585938 -4.609375 L 1.285156 -4.609375 L 1.285156 -3.964844 C 1.429688 -4.1875 1.621094 -4.371094 1.863281 -4.507812 C 2.101562 -4.644531 2.375 -4.714844 2.683594 -4.714844 C 3.023438 -4.714844 3.304688 -4.644531 3.523438 -4.5 C 3.742188 -4.359375 3.894531 -4.160156 3.984375 -3.90625 C 4.347656 -4.445312 4.824219 -4.714844 5.410156 -4.714844 C 5.867188 -4.714844 6.21875 -4.585938 6.464844 -4.335938 C 6.710938 -4.082031 6.832031 -3.691406 6.832031 -3.164062 L 6.832031 0 L 6.054688 0 L 6.054688 -2.902344 C 6.054688 -3.214844 6.03125 -3.441406 5.980469 -3.578125 C 5.929688 -3.714844 5.835938 -3.828125 5.703125 -3.910156 C 5.570312 -3.996094 5.414062 -4.035156 5.234375 -4.035156 C 4.910156 -4.035156 4.640625 -3.929688 4.425781 -3.714844 C 4.210938 -3.5 4.105469 -3.152344 4.105469 -2.679688 L 4.105469 0 L 3.324219 0 L 3.324219 -2.996094 C 3.324219 -3.34375 3.261719 -3.601562 3.132812 -3.777344 C 3.007812 -3.949219 2.796875 -4.035156 2.507812 -4.035156 C 2.289062 -4.035156 2.085938 -3.980469 1.898438 -3.863281 C 1.710938 -3.746094 1.578125 -3.578125 1.492188 -3.355469 C 1.410156 -3.132812 1.367188 -2.8125 1.367188 -2.390625 L 1.367188 0 Z "/>
</g>
<g id="glyph-0-22">
<path d="M 0.570312 0 L 0.570312 -6.363281 L 1.351562 -6.363281 L 1.351562 0 Z "/>
</g>
</g>
<image id="source-12" x="0" y="0" width="0" height="0"/>
<mask id="mask-0">
<use xlink:href="#source-12"/>
</mask>
</defs>
<g fill="rgb(12.156863%, 16.078431%, 20%)" fill-opacity="1">
<use xlink:href="#glyph-0-0" x="30" y="28.047852"/>
<use xlink:href="#glyph-0-1" x="37" y="28.047852"/>
<use xlink:href="#glyph-0-2" x="42" y="28.047852"/>
<use xlink:href="#glyph-0-3" x="47" y="28.047852"/>
<use xlink:href="#glyph-0-4" x="50" y="28.047852"/>
<use xlink:href="#glyph-0-5" x="55" y="28.047852"/>
<use xlink:href="#glyph-0-6" x="60" y="28.047852"/>
<use xlink:href="#glyph-0-7" x="62" y="28.047852"/>
<use xlink:href="#glyph-0-8" x="64" y="28.047852"/>
<use xlink:href="#glyph-0-9" x="66" y="28.047852"/>
<use xlink:href="#glyph-0-10" x="72" y="28.047852"/>
<use xlink:href="#glyph-0-7" x="76" y="28.047852"/>
<use xlink:href="#glyph-0-11" x="78" y="28.047852"/>
<use xlink:href="#glyph-0-12" x="80" y="28.047852"/>
<use xlink:href="#glyph-0-2" x="85" y="28.047852"/>
<use xlink:href="#glyph-0-1" x="90" y="28.047852"/>
<use xlink:href="#glyph-0-6" x="95" y="28.047852"/>
<use xlink:href="#glyph-0-11" x="97" y="28.047852"/>
<use xlink:href="#glyph-0-13" x="99" y="28.047852"/>
<use xlink:href="#glyph-0-14" x="101" y="28.047852"/>
<use xlink:href="#glyph-0-7" x="105" y="28.047852"/>
<use xlink:href="#glyph-0-15" x="107" y="28.047852"/>
<use xlink:href="#glyph-0-5" x="113" y="28.047852"/>
<use xlink:href="#glyph-0-16" x="118" y="28.047852"/>
<use xlink:href="#glyph-0-12" x="121" y="28.047852"/>
<use xlink:href="#glyph-0-10" x="126" y="28.047852"/>
<use xlink:href="#glyph-0-17" x="130" y="28.047852"/>
<use xlink:href="#glyph-0-7" x="132" y="28.047852"/>
<use xlink:href="#glyph-0-9" x="134" y="28.047852"/>
<use xlink:href="#glyph-0-2" x="140" y="28.047852"/>
<use xlink:href="#glyph-0-1" x="145" y="28.047852"/>
<use xlink:href="#glyph-0-10" x="150" y="28.047852"/>
<use xlink:href="#glyph-0-2" x="154" y="28.047852"/>
<use xlink:href="#glyph-0-7" x="159" y="28.047852"/>
<use xlink:href="#glyph-0-18" x="161" y="28.047852"/>
<use xlink:href="#glyph-0-2" x="165" y="28.047852"/>
<use xlink:href="#glyph-0-19" x="170" y="28.047852"/>
<use xlink:href="#glyph-0-6" x="174" y="28.047852"/>
<use xlink:href="#glyph-0-5" x="176" y="28.047852"/>
<use xlink:href="#glyph-0-16" x="181" y="28.047852"/>
<use xlink:href="#glyph-0-10" x="184" y="28.047852"/>
<use xlink:href="#glyph-0-7" x="188" y="28.047852"/>
<use xlink:href="#glyph-0-19" x="190" y="28.047852"/>
<use xlink:href="#glyph-0-20" x="194" y="28.047852"/>
<use xlink:href="#glyph-0-1" x="199" y="28.047852"/>
<use xlink:href="#glyph-0-7" x="204" y="28.047852"/>
<use xlink:href="#glyph-0-19" x="206" y="28.047852"/>
<use xlink:href="#glyph-0-20" x="210" y="28.047852"/>
<use xlink:href="#glyph-0-16" x="215" y="28.047852"/>
<use xlink:href="#glyph-0-16" x="218" y="28.047852"/>
<use xlink:href="#glyph-0-14" x="221" y="28.047852"/>
<use xlink:href="#glyph-0-7" x="225" y="28.047852"/>
<use xlink:href="#glyph-0-10" x="227" y="28.047852"/>
<use xlink:href="#glyph-0-11" x="231" y="28.047852"/>
<use xlink:href="#glyph-0-21" x="233" y="28.047852"/>
<use xlink:href="#glyph-0-11" x="240" y="28.047852"/>
<use xlink:href="#glyph-0-22" x="242" y="28.047852"/>
<use xlink:href="#glyph-0-20" x="244" y="28.047852"/>
<use xlink:href="#glyph-0-16" x="249" y="28.047852"/>
<use xlink:href="#glyph-0-11" x="252" y="28.047852"/>
<use xlink:href="#glyph-0-6" x="254" y="28.047852"/>
<use xlink:href="#glyph-0-14" x="256" y="28.047852"/>
<use xlink:href="#glyph-0-17" x="260" y="28.047852"/>
</g>
</svg>
