<?xml version="1.0" encoding="UTF-8"?>
<svg xmlns="http://www.w3.org/2000/svg" xmlns:xlink="http://www.w3.org/1999/xlink" width="854" height="480" viewBox="0 0 854 480">
<defs>
<g>
<g id="glyph-0-0">
<path d="M 2.695312 -1.265625 L 3.273438 -1.191406 C 3.210938 -0.792969 3.046875 -0.484375 2.789062 -0.257812 C 2.527344 -0.0351562 2.210938 0.078125 1.832031 0.078125 C 1.359375 0.078125 0.980469 -0.078125 0.691406 -0.386719 C 0.402344 -0.695312 0.261719 -1.136719 0.261719 -1.714844 C 0.261719 -2.089844 0.324219 -2.414062 0.445312 -2.695312 C 0.570312 -2.976562 0.757812 -3.183594 1.011719 -3.324219 C 1.265625 -3.464844 1.539062 -3.535156 1.835938 -3.535156 C 2.210938 -3.535156 2.519531 -3.441406 2.757812 -3.25 C 2.996094 -3.058594 3.148438 -2.789062 3.214844 -2.441406 L 2.648438 -2.355469 C 2.59375 -2.585938 2.496094 -2.761719 2.359375 -2.878906 C 2.222656 -2.996094 2.054688 -3.054688 1.859375 -3.054688 C 1.5625 -3.054688 1.324219 -2.949219 1.140625 -2.734375 C 0.957031 -2.523438 0.863281 -2.191406 0.863281 -1.730469 C 0.863281 -1.265625 0.953125 -0.929688 1.128906 -0.71875 C 1.308594 -0.507812 1.539062 -0.402344 1.828125 -0.402344 C 2.058594 -0.402344 2.25 -0.472656 2.402344 -0.617188 C 2.554688 -0.757812 2.652344 -0.972656 2.695312 -1.265625 Z "/>
</g>
<g id="glyph-0-1">
<path d="M 2.695312 -0.425781 C 2.476562 -0.242188 2.269531 -0.113281 2.070312 -0.0351562 C 1.867188 0.0390625 1.652344 0.078125 1.421875 0.078125 C 1.042969 0.078125 0.75 -0.015625 0.546875 -0.199219 C 0.34375 -0.386719 0.242188 -0.621094 0.242188 -0.910156 C 0.242188 -1.082031 0.28125 -1.234375 0.355469 -1.375 C 0.433594 -1.515625 0.535156 -1.628906 0.660156 -1.710938 C 0.785156 -1.796875 0.925781 -1.859375 1.082031 -1.90625 C 1.195312 -1.933594 1.371094 -1.964844 1.601562 -1.992188 C 2.074219 -2.046875 2.421875 -2.117188 2.648438 -2.195312 C 2.648438 -2.273438 2.648438 -2.324219 2.648438 -2.347656 C 2.648438 -2.585938 2.59375 -2.753906 2.484375 -2.851562 C 2.335938 -2.984375 2.113281 -3.050781 1.816406 -3.050781 C 1.539062 -3.050781 1.335938 -3.003906 1.207031 -2.90625 C 1.074219 -2.808594 0.976562 -2.636719 0.914062 -2.394531 L 0.34375 -2.472656 C 0.394531 -2.714844 0.480469 -2.914062 0.597656 -3.066406 C 0.71875 -3.214844 0.890625 -3.332031 1.117188 -3.414062 C 1.34375 -3.496094 1.605469 -3.535156 1.902344 -3.535156 C 2.195312 -3.535156 2.4375 -3.5 2.621094 -3.429688 C 2.804688 -3.359375 2.941406 -3.273438 3.027344 -3.167969 C 3.113281 -3.0625 3.175781 -2.929688 3.210938 -2.769531 C 3.230469 -2.671875 3.238281 -2.492188 3.238281 -2.230469 L 3.238281 -1.449219 C 3.238281 -0.902344 3.25 -0.558594 3.277344 -0.414062 C 3.300781 -0.269531 3.351562 -0.132812 3.425781 0 L 2.8125 0 C 2.75 -0.121094 2.710938 -0.265625 2.695312 -0.425781 Z M 2.648438 -1.734375 C 2.433594 -1.648438 2.113281 -1.574219 1.691406 -1.515625 C 1.449219 -1.480469 1.277344 -1.441406 1.179688 -1.398438 C 1.078125 -1.355469 1 -1.289062 0.949219 -1.207031 C 0.894531 -1.121094 0.867188 -1.03125 0.867188 -0.929688 C 0.867188 -0.773438 0.925781 -0.640625 1.042969 -0.539062 C 1.160156 -0.433594 1.335938 -0.382812 1.5625 -0.382812 C 1.789062 -0.382812 1.988281 -0.429688 2.164062 -0.527344 C 2.339844 -0.628906 2.46875 -0.761719 2.550781 -0.933594 C 2.613281 -1.066406 2.648438 -1.261719 2.648438 -1.519531 Z "/>
</g>
<g id="glyph-0-2">
<path d="M 0.441406 1.324219 L 0.441406 -3.457031 L 0.972656 -3.457031 L 0.972656 -3.007812 C 1.097656 -3.183594 1.242188 -3.316406 1.398438 -3.402344 C 1.558594 -3.492188 1.75 -3.535156 1.976562 -3.535156 C 2.269531 -3.535156 2.53125 -3.460938 2.757812 -3.308594 C 2.984375 -3.15625 3.152344 -2.941406 3.269531 -2.664062 C 3.382812 -2.386719 3.441406 -2.085938 3.441406 -1.753906 C 3.441406 -1.402344 3.378906 -1.082031 3.25 -0.800781 C 3.125 -0.515625 2.9375 -0.300781 2.695312 -0.148438 C 2.453125 0.00390625 2.199219 0.078125 1.933594 0.078125 C 1.738281 0.078125 1.5625 0.0351562 1.40625 -0.046875 C 1.253906 -0.128906 1.125 -0.230469 1.027344 -0.359375 L 1.027344 1.324219 Z M 0.96875 -1.710938 C 0.96875 -1.265625 1.058594 -0.933594 1.242188 -0.722656 C 1.421875 -0.511719 1.636719 -0.402344 1.894531 -0.402344 C 2.15625 -0.402344 2.378906 -0.515625 2.5625 -0.734375 C 2.75 -0.953125 2.84375 -1.296875 2.84375 -1.757812 C 2.84375 -2.199219 2.75 -2.527344 2.570312 -2.746094 C 2.390625 -2.964844 2.171875 -3.078125 1.921875 -3.078125 C 1.671875 -3.078125 1.449219 -2.960938 1.257812 -2.726562 C 1.066406 -2.492188 0.96875 -2.152344 0.96875 -1.710938 Z "/>
</g>
<g id="glyph-0-3">
<path d="M 0.441406 -4.097656 L 0.441406 -4.773438 L 1.027344 -4.773438 L 1.027344 -4.097656 Z M 0.441406 0 L 0.441406 -3.457031 L 1.027344 -3.457031 L 1.027344 0 Z "/>
</g>
<g id="glyph-0-4">
<path d="M 1.71875 -0.523438 L 1.804688 -0.0078125 C 1.640625 0.0273438 1.492188 0.046875 1.359375 0.046875 C 1.148438 0.046875 0.984375 0.0117188 0.867188 -0.0546875 C 0.75 -0.121094 0.667969 -0.210938 0.617188 -0.320312 C 0.570312 -0.429688 0.546875 -0.660156 0.546875 -1.011719 L 0.546875 -3 L 0.117188 -3 L 0.117188 -3.457031 L 0.546875 -3.457031 L 0.546875 -4.3125 L 1.128906 -4.664062 L 1.128906 -3.457031 L 1.71875 -3.457031 L 1.71875 -3 L 1.128906 -3 L 1.128906 -0.980469 C 1.128906 -0.8125 1.140625 -0.707031 1.160156 -0.65625 C 1.179688 -0.609375 1.214844 -0.570312 1.261719 -0.542969 C 1.308594 -0.515625 1.375 -0.5 1.460938 -0.5 C 1.527344 -0.5 1.613281 -0.507812 1.71875 -0.523438 Z "/>
</g>
<g id="glyph-0-5">
<path d="M 0.425781 0 L 0.425781 -4.773438 L 1.011719 -4.773438 L 1.011719 0 Z "/>
</g>
<g id="glyph-0-6">
<path d="M 0.210938 -1.433594 L 0.210938 -2.023438 L 2.011719 -2.023438 L 2.011719 -1.433594 Z "/>
</g>
<g id="glyph-0-7">
<path d="M 0.414062 1.332031 L 0.347656 0.78125 C 0.476562 0.816406 0.589844 0.832031 0.683594 0.832031 C 0.8125 0.832031 0.917969 0.8125 0.996094 0.769531 C 1.074219 0.726562 1.136719 0.664062 1.1875 0.585938 C 1.226562 0.527344 1.285156 0.382812 1.367188 0.148438 C 1.378906 0.117188 1.394531 0.0703125 1.417969 0.0078125 L 0.109375 -3.457031 L 0.738281 -3.457031 L 1.457031 -1.457031 C 1.550781 -1.203125 1.636719 -0.933594 1.710938 -0.65625 C 1.777344 -0.925781 1.855469 -1.1875 1.949219 -1.441406 L 2.6875 -3.457031 L 3.273438 -3.457031 L 1.960938 0.0585938 C 1.820312 0.4375 1.710938 0.699219 1.632812 0.84375 C 1.527344 1.035156 1.40625 1.179688 1.273438 1.269531 C 1.136719 1.359375 0.976562 1.402344 0.792969 1.402344 C 0.679688 1.402344 0.550781 1.378906 0.414062 1.332031 Z "/>
</g>
<g id="glyph-0-8">
<rect x="0" y="0" width="0" height="0" mask="url(#mask-0)"/>
</g>
<g id="glyph-0-9">
<path d="M 0.222656 -1.730469 C 0.222656 -2.371094 0.398438 -2.84375 0.753906 -3.152344 C 1.050781 -3.40625 1.414062 -3.535156 1.84375 -3.535156 C 2.316406 -3.535156 2.707031 -3.378906 3.007812 -3.066406 C 3.308594 -2.757812 3.460938 -2.328125 3.460938 -1.777344 C 3.460938 -1.332031 3.394531 -0.984375 3.261719 -0.726562 C 3.128906 -0.472656 2.933594 -0.273438 2.675781 -0.132812 C 2.421875 0.0078125 2.144531 0.078125 1.84375 0.078125 C 1.359375 0.078125 0.96875 -0.078125 0.667969 -0.386719 C 0.371094 -0.699219 0.222656 -1.144531 0.222656 -1.730469 Z M 0.824219 -1.730469 C 0.824219 -1.285156 0.921875 -0.953125 1.113281 -0.734375 C 1.304688 -0.515625 1.550781 -0.402344 1.84375 -0.402344 C 2.132812 -0.402344 2.375 -0.515625 2.570312 -0.734375 C 2.761719 -0.957031 2.859375 -1.292969 2.859375 -1.75 C 2.859375 -2.175781 2.761719 -2.5 2.566406 -2.71875 C 2.371094 -2.941406 2.132812 -3.050781 1.84375 -3.050781 C 1.550781 -3.050781 1.304688 -2.941406 1.113281 -2.722656 C 0.921875 -2.503906 0.824219 -2.171875 0.824219 -1.730469 Z "/>
</g>
<g id="glyph-0-10">
<path d="M 0.578125 0 L 0.578125 -3 L 0.0625 -3 L 0.0625 -3.457031 L 0.578125 -3.457031 L 0.578125 -3.824219 C 0.578125 -4.058594 0.601562 -4.230469 0.640625 -4.34375 C 0.699219 -4.496094 0.796875 -4.617188 0.9375 -4.710938 C 1.082031 -4.804688 1.28125 -4.855469 1.535156 -4.855469 C 1.699219 -4.855469 1.882812 -4.835938 2.082031 -4.796875 L 1.996094 -4.285156 C 1.875 -4.304688 1.757812 -4.316406 1.652344 -4.316406 C 1.472656 -4.316406 1.347656 -4.277344 1.273438 -4.203125 C 1.199219 -4.125 1.164062 -3.984375 1.164062 -3.777344 L 1.164062 -3.457031 L 1.835938 -3.457031 L 1.835938 -3 L 1.164062 -3 L 1.164062 0 Z "/>
</g>
<g id="glyph-0-11">
<path d="M 0.207031 -1.03125 L 0.785156 -1.125 C 0.816406 -0.890625 0.90625 -0.714844 1.054688 -0.589844 C 1.203125 -0.464844 1.414062 -0.402344 1.679688 -0.402344 C 1.949219 -0.402344 2.148438 -0.457031 2.277344 -0.566406 C 2.410156 -0.675781 2.472656 -0.804688 2.472656 -0.953125 C 2.472656 -1.085938 2.417969 -1.191406 2.300781 -1.265625 C 2.222656 -1.316406 2.023438 -1.382812 1.703125 -1.464844 C 1.273438 -1.574219 0.976562 -1.667969 0.808594 -1.746094 C 0.644531 -1.824219 0.515625 -1.933594 0.429688 -2.074219 C 0.34375 -2.214844 0.304688 -2.371094 0.304688 -2.539062 C 0.304688 -2.691406 0.339844 -2.835938 0.410156 -2.96875 C 0.480469 -3.097656 0.574219 -3.207031 0.695312 -3.292969 C 0.789062 -3.359375 0.910156 -3.417969 1.070312 -3.464844 C 1.226562 -3.511719 1.394531 -3.535156 1.574219 -3.535156 C 1.847656 -3.535156 2.085938 -3.496094 2.289062 -3.417969 C 2.496094 -3.339844 2.648438 -3.234375 2.746094 -3.101562 C 2.84375 -2.96875 2.910156 -2.789062 2.945312 -2.566406 L 2.375 -2.488281 C 2.347656 -2.664062 2.273438 -2.804688 2.148438 -2.902344 C 2.023438 -3.003906 1.847656 -3.054688 1.617188 -3.054688 C 1.347656 -3.054688 1.15625 -3.007812 1.042969 -2.921875 C 0.925781 -2.832031 0.871094 -2.726562 0.871094 -2.609375 C 0.871094 -2.53125 0.894531 -2.464844 0.941406 -2.402344 C 0.988281 -2.339844 1.0625 -2.289062 1.164062 -2.246094 C 1.222656 -2.222656 1.398438 -2.175781 1.683594 -2.097656 C 2.097656 -1.984375 2.386719 -1.894531 2.550781 -1.824219 C 2.714844 -1.753906 2.84375 -1.652344 2.9375 -1.515625 C 3.03125 -1.382812 3.078125 -1.214844 3.078125 -1.015625 C 3.078125 -0.820312 3.019531 -0.636719 2.90625 -0.464844 C 2.792969 -0.292969 2.628906 -0.15625 2.414062 -0.0625 C 2.199219 0.03125 1.953125 0.078125 1.683594 0.078125 C 1.234375 0.078125 0.890625 -0.015625 0.65625 -0.203125 C 0.421875 -0.390625 0.269531 -0.664062 0.207031 -1.03125 Z "/>
</g>
<g id="glyph-0-12">
<path d="M 2.804688 -1.113281 L 3.410156 -1.039062 C 3.316406 -0.683594 3.140625 -0.410156 2.882812 -0.214844 C 2.625 -0.0195312 2.292969 0.078125 1.890625 0.078125 C 1.386719 0.078125 0.984375 -0.078125 0.6875 -0.390625 C 0.390625 -0.699219 0.246094 -1.136719 0.246094 -1.699219 C 0.246094 -2.28125 0.394531 -2.730469 0.695312 -3.054688 C 0.992188 -3.375 1.382812 -3.535156 1.859375 -3.535156 C 2.320312 -3.535156 2.699219 -3.378906 2.992188 -3.0625 C 3.285156 -2.75 3.429688 -2.304688 3.429688 -1.734375 C 3.429688 -1.699219 3.429688 -1.648438 3.429688 -1.578125 L 0.851562 -1.578125 C 0.871094 -1.199219 0.980469 -0.910156 1.171875 -0.707031 C 1.363281 -0.503906 1.605469 -0.402344 1.894531 -0.402344 C 2.109375 -0.402344 2.292969 -0.460938 2.445312 -0.574219 C 2.597656 -0.6875 2.71875 -0.867188 2.804688 -1.113281 Z M 0.882812 -2.0625 L 2.8125 -2.0625 C 2.785156 -2.351562 2.710938 -2.570312 2.589844 -2.714844 C 2.402344 -2.941406 2.164062 -3.054688 1.867188 -3.054688 C 1.597656 -3.054688 1.371094 -2.964844 1.1875 -2.785156 C 1.003906 -2.605469 0.902344 -2.363281 0.882812 -2.0625 Z "/>
</g>
</g>
<image id="source-79" x="0" y="0" width="0" height="0"/>
<mask id="mask-0">
<use xlink:href="#source-79"/>
</mask>
</defs>
<g fill="rgb(76.078431%, 25.490196%, 4.705882%)" fill-opacity="1">
<use xlink:href="#glyph-0-0" x="30" y="26.035156"/>
<use xlink:href="#glyph-0-1" x="33" y="26.035156"/>
<use xlink:href="#glyph-0-2" x="37" y="26.035156"/>
<use xlink:href="#glyph-0-3" x="41" y="26.035156"/>
<use xlink:href="#glyph-0-4" x="42" y="26.035156"/>
<use xlink:href="#glyph-0-1" x="44" y="26.035156"/>
<use xlink:href="#glyph-0-5" x="48" y="26.035156"/>
<use xlink:href="#glyph-0-6" x="49" y="26.035156"/>
<use xlink:href="#glyph-0-0" x="51" y="26.035156"/>
<use xlink:href="#glyph-0-3" x="54" y="26.035156"/>
<use xlink:href="#glyph-0-4" x="55" y="26.035156"/>
<use xlink:href="#glyph-0-7" x="57" y="26.035156"/>
<use xlink:href="#glyph-0-8" x="60" y="26.035156"/>
<use xlink:href="#glyph-0-9" x="62" y="26.035156"/>
<use xlink:href="#glyph-0-10" x="66" y="26.035156"/>
<use xlink:href="#glyph-0-10" x="68" y="26.035156"/>
<use xlink:href="#glyph-0-11" x="70" y="26.035156"/>
<use xlink:href="#glyph-0-12" x="73" y="26.035156"/>
<use xlink:href="#glyph-0-4" x="77" y="26.035156"/>
</g>
</svg>
