<?xml version="1.0" encoding="UTF-8"?>
<svg xmlns="http://www.w3.org/2000/svg" xmlns:xlink="http://www.w3.org/1999/xlink" width="854" height="480" viewBox="0 0 854 480">
<defs>
<g>
<g id="glyph-0-0">
<path d="M 2.457031 0 L 2.457031 -0.398438 C 2.257812 -0.0859375 1.960938 0.0703125 1.574219 0.0703125 C 1.320312 0.0703125 1.085938 0.00390625 0.875 -0.136719 C 0.664062 -0.277344 0.5 -0.472656 0.382812 -0.71875 C 0.265625 -0.96875 0.207031 -1.257812 0.207031 -1.582031 C 0.207031 -1.898438 0.261719 -2.183594 0.367188 -2.441406 C 0.472656 -2.699219 0.628906 -2.898438 0.839844 -3.035156 C 1.050781 -3.171875 1.289062 -3.238281 1.546875 -3.238281 C 1.738281 -3.238281 1.910156 -3.199219 2.058594 -3.121094 C 2.207031 -3.039062 2.328125 -2.933594 2.421875 -2.804688 L 2.421875 -4.375 L 2.957031 -4.375 L 2.957031 0 Z M 0.761719 -1.582031 C 0.761719 -1.175781 0.847656 -0.871094 1.015625 -0.671875 C 1.1875 -0.46875 1.390625 -0.371094 1.625 -0.371094 C 1.859375 -0.371094 2.058594 -0.464844 2.222656 -0.65625 C 2.386719 -0.847656 2.46875 -1.144531 2.46875 -1.535156 C 2.46875 -1.96875 2.382812 -2.289062 2.214844 -2.492188 C 2.050781 -2.695312 1.84375 -2.796875 1.597656 -2.796875 C 1.359375 -2.796875 1.160156 -2.699219 1 -2.503906 C 0.839844 -2.308594 0.761719 -2 0.761719 -1.582031 Z "/>
</g>
<g id="glyph-0-1">
<path d="M 0.203125 -1.585938 C 0.203125 -2.171875 0.367188 -2.605469 0.691406 -2.886719 C 0.964844 -3.121094 1.296875 -3.238281 1.6875 -3.238281 C 2.125 -3.238281 2.480469 -3.097656 2.757812 -2.8125 C 3.035156 -2.527344 3.171875 -2.132812 3.171875 -1.628906 C 3.171875 -1.222656 3.109375 -0.902344 2.988281 -0.667969 C 2.867188 -0.433594 2.6875 -0.25 2.453125 -0.121094 C 2.21875 0.0078125 1.964844 0.0703125 1.6875 0.0703125 C 1.246094 0.0703125 0.886719 -0.0703125 0.613281 -0.355469 C 0.339844 -0.640625 0.203125 -1.050781 0.203125 -1.585938 Z M 0.753906 -1.585938 C 0.753906 -1.179688 0.84375 -0.875 1.019531 -0.671875 C 1.195312 -0.46875 1.421875 -0.371094 1.6875 -0.371094 C 1.953125 -0.371094 2.175781 -0.472656 2.355469 -0.675781 C 2.53125 -0.878906 2.621094 -1.1875 2.621094 -1.601562 C 2.621094 -1.992188 2.53125 -2.289062 2.351562 -2.492188 C 2.175781 -2.695312 1.953125 -2.796875 1.6875 -2.796875 C 1.417969 -2.796875 1.199219 -2.695312 1.019531 -2.496094 C 0.84375 -2.292969 0.753906 -1.988281 0.753906 -1.585938 Z "/>
</g>
<g id="glyph-0-2">
<path d="M 0.304688 0.261719 L 0.828125 0.339844 C 0.847656 0.5 0.910156 0.617188 1.007812 0.691406 C 1.140625 0.792969 1.324219 0.839844 1.554688 0.839844 C 1.804688 0.839844 1.996094 0.792969 2.128906 0.691406 C 2.265625 0.59375 2.355469 0.453125 2.40625 0.273438 C 2.433594 0.164062 2.445312 -0.0664062 2.445312 -0.414062 C 2.210938 -0.136719 1.917969 0 1.566406 0 C 1.128906 0 0.792969 -0.15625 0.554688 -0.472656 C 0.316406 -0.785156 0.195312 -1.164062 0.195312 -1.601562 C 0.195312 -1.90625 0.25 -2.183594 0.359375 -2.4375 C 0.46875 -2.695312 0.628906 -2.890625 0.835938 -3.03125 C 1.042969 -3.171875 1.289062 -3.238281 1.570312 -3.238281 C 1.945312 -3.238281 2.25 -3.089844 2.496094 -2.785156 L 2.496094 -3.167969 L 2.988281 -3.167969 L 2.988281 -0.429688 C 2.988281 0.0625 2.9375 0.414062 2.839844 0.617188 C 2.738281 0.824219 2.578125 0.988281 2.363281 1.105469 C 2.144531 1.226562 1.875 1.285156 1.558594 1.285156 C 1.179688 1.285156 0.875 1.199219 0.640625 1.03125 C 0.410156 0.859375 0.296875 0.605469 0.304688 0.261719 Z M 0.75 -1.640625 C 0.75 -1.226562 0.832031 -0.921875 0.996094 -0.730469 C 1.160156 -0.539062 1.367188 -0.445312 1.617188 -0.445312 C 1.863281 -0.445312 2.070312 -0.539062 2.238281 -0.730469 C 2.40625 -0.917969 2.488281 -1.21875 2.488281 -1.625 C 2.488281 -2.011719 2.402344 -2.304688 2.230469 -2.5 C 2.058594 -2.695312 1.851562 -2.796875 1.609375 -2.796875 C 1.371094 -2.796875 1.167969 -2.699219 1 -2.503906 C 0.832031 -2.308594 0.75 -2.023438 0.75 -1.640625 Z "/>
</g>
</g>
</defs>
<g fill="rgb(12.156863%, 16.078431%, 20%)" fill-opacity="1">
<use xlink:href="#glyph-0-0" x="30" y="25.53125"/>
<use xlink:href="#glyph-0-1" x="33" y="25.53125"/>
<use xlink:href="#glyph-0-2" x="36" y="25.53125"/>
</g>
</svg>
