<?xml version="1.0" encoding="UTF-8"?>
<svg xmlns="http://www.w3.org/2000/svg" xmlns:xlink="http://www.w3.org/1999/xlink" width="854" height="480" viewBox="0 0 854 480">
<defs>
<g>
<g id="glyph-0-0">
<path d="M 2.683594 0 L 2.683594 -0.4375 C 2.464844 -0.09375 2.140625 0.078125 1.714844 0.078125 C 1.441406 0.078125 1.1875 0.00390625 0.957031 -0.148438 C 0.726562 -0.300781 0.546875 -0.515625 0.417969 -0.785156 C 0.292969 -1.058594 0.226562 -1.371094 0.226562 -1.726562 C 0.226562 -2.070312 0.285156 -2.382812 0.402344 -2.664062 C 0.515625 -2.945312 0.6875 -3.160156 0.917969 -3.3125 C 1.148438 -3.460938 1.40625 -3.535156 1.691406 -3.535156 C 1.898438 -3.535156 2.082031 -3.492188 2.246094 -3.402344 C 2.410156 -3.316406 2.542969 -3.199219 2.644531 -3.058594 L 2.644531 -4.773438 L 3.226562 -4.773438 L 3.226562 0 Z M 0.832031 -1.726562 C 0.832031 -1.28125 0.921875 -0.953125 1.109375 -0.734375 C 1.296875 -0.515625 1.515625 -0.402344 1.769531 -0.402344 C 2.027344 -0.402344 2.246094 -0.507812 2.421875 -0.71875 C 2.601562 -0.925781 2.691406 -1.246094 2.691406 -1.675781 C 2.691406 -2.148438 2.601562 -2.496094 2.417969 -2.71875 C 2.234375 -2.941406 2.011719 -3.050781 1.746094 -3.050781 C 1.484375 -3.050781 1.265625 -2.945312 1.09375 -2.730469 C 0.917969 -2.519531 0.832031 -2.183594 0.832031 -1.726562 Z "/>
</g>
<g id="glyph-0-1">
<path d="M 0.222656 -1.730469 C 0.222656 -2.371094 0.398438 -2.84375 0.753906 -3.152344 C 1.050781 -3.40625 1.414062 -3.535156 1.84375 -3.535156 C 2.316406 -3.535156 2.707031 -3.378906 3.007812 -3.066406 C 3.308594 -2.757812 3.460938 -2.328125 3.460938 -1.777344 C 3.460938 -1.332031 3.394531 -0.984375 3.261719 -0.726562 C 3.128906 -0.472656 2.933594 -0.273438 2.675781 -0.132812 C 2.421875 0.0078125 2.144531 0.078125 1.84375 0.078125 C 1.359375 0.078125 0.96875 -0.078125 0.667969 -0.386719 C 0.371094 -0.699219 0.222656 -1.144531 0.222656 -1.730469 Z M 0.824219 -1.730469 C 0.824219 -1.285156 0.921875 -0.953125 1.113281 -0.734375 C 1.304688 -0.515625 1.550781 -0.402344 1.84375 -0.402344 C 2.132812 -0.402344 2.375 -0.515625 2.570312 -0.734375 C 2.761719 -0.957031 2.859375 -1.292969 2.859375 -1.75 C 2.859375 -2.175781 2.761719 -2.5 2.566406 -2.71875 C 2.371094 -2.941406 2.132812 -3.050781 1.84375 -3.050781 C 1.550781 -3.050781 1.304688 -2.941406 1.113281 -2.722656 C 0.921875 -2.503906 0.824219 -2.171875 0.824219 -1.730469 Z "/>
</g>
<g id="glyph-0-2">
<path d="M 0.332031 0.285156 L 0.902344 0.371094 C 0.925781 0.546875 0.992188 0.675781 1.101562 0.753906 C 1.246094 0.863281 1.445312 0.917969 1.695312 0.917969 C 1.96875 0.917969 2.175781 0.863281 2.324219 0.753906 C 2.472656 0.644531 2.570312 0.496094 2.625 0.300781 C 2.65625 0.179688 2.667969 -0.0703125 2.667969 -0.453125 C 2.410156 -0.152344 2.089844 0 1.710938 0 C 1.234375 0 0.867188 -0.171875 0.605469 -0.515625 C 0.34375 -0.859375 0.214844 -1.269531 0.214844 -1.75 C 0.214844 -2.078125 0.273438 -2.382812 0.394531 -2.660156 C 0.511719 -2.941406 0.6875 -3.15625 0.914062 -3.308594 C 1.140625 -3.460938 1.40625 -3.535156 1.710938 -3.535156 C 2.121094 -3.535156 2.457031 -3.371094 2.722656 -3.039062 L 2.722656 -3.457031 L 3.261719 -3.457031 L 3.261719 -0.46875 C 3.261719 0.0703125 3.207031 0.449219 3.097656 0.675781 C 2.988281 0.898438 2.8125 1.078125 2.578125 1.207031 C 2.339844 1.335938 2.046875 1.402344 1.699219 1.402344 C 1.285156 1.402344 0.953125 1.308594 0.699219 1.125 C 0.445312 0.9375 0.324219 0.660156 0.332031 0.285156 Z M 0.816406 -1.789062 C 0.816406 -1.335938 0.90625 -1.007812 1.085938 -0.796875 C 1.265625 -0.589844 1.492188 -0.484375 1.765625 -0.484375 C 2.035156 -0.484375 2.257812 -0.589844 2.441406 -0.796875 C 2.625 -1.003906 2.714844 -1.328125 2.714844 -1.769531 C 2.714844 -2.195312 2.621094 -2.511719 2.433594 -2.726562 C 2.246094 -2.941406 2.019531 -3.050781 1.753906 -3.050781 C 1.492188 -3.050781 1.273438 -2.945312 1.089844 -2.734375 C 0.90625 -2.523438 0.816406 -2.207031 0.816406 -1.789062 Z "/>
</g>
</g>
</defs>
<g fill="rgb(12.156863%, 16.078431%, 20%)" fill-opacity="1">
<use xlink:href="#glyph-0-0" x="30" y="26.035156"/>
<use xlink:href="#glyph-0-1" x="34" y="26.035156"/>
<use xlink:href="#glyph-0-2" x="38" y="26.035156"/>
</g>
</svg>
