<?xml version="1.0" encoding="UTF-8"?>
<svg xmlns="http://www.w3.org/2000/svg" xmlns:xlink="http://www.w3.org/1999/xlink" width="854" height="480" viewBox="0 0 854 480">
<defs>
<g>
<g id="glyph-0-0">
<path d="M 2.570312 -1.019531 L 3.125 -0.953125 C 3.039062 -0.628906 2.878906 -0.375 2.640625 -0.195312 C 2.402344 -0.015625 2.101562 0.0703125 1.734375 0.0703125 C 1.269531 0.0703125 0.902344 -0.0703125 0.632812 -0.355469 C 0.359375 -0.640625 0.222656 -1.042969 0.222656 -1.558594 C 0.222656 -2.089844 0.359375 -2.503906 0.636719 -2.796875 C 0.910156 -3.09375 1.265625 -3.238281 1.703125 -3.238281 C 2.128906 -3.238281 2.472656 -3.097656 2.742188 -2.808594 C 3.011719 -2.519531 3.144531 -2.113281 3.144531 -1.589844 C 3.144531 -1.558594 3.144531 -1.511719 3.140625 -1.445312 L 0.777344 -1.445312 C 0.796875 -1.097656 0.898438 -0.832031 1.074219 -0.648438 C 1.25 -0.460938 1.472656 -0.371094 1.738281 -0.371094 C 1.933594 -0.371094 2.101562 -0.421875 2.242188 -0.523438 C 2.378906 -0.628906 2.492188 -0.792969 2.570312 -1.019531 Z M 0.808594 -1.886719 L 2.578125 -1.886719 C 2.554688 -2.15625 2.484375 -2.355469 2.375 -2.488281 C 2.203125 -2.695312 1.980469 -2.796875 1.710938 -2.796875 C 1.464844 -2.796875 1.253906 -2.714844 1.085938 -2.550781 C 0.917969 -2.386719 0.828125 -2.164062 0.808594 -1.886719 Z "/>
</g>
<g id="glyph-0-1">
<path d="M 0.402344 0 L 0.402344 -3.167969 L 0.886719 -3.167969 L 0.886719 -2.71875 C 1.117188 -3.066406 1.453125 -3.238281 1.894531 -3.238281 C 2.085938 -3.238281 2.261719 -3.207031 2.421875 -3.136719 C 2.582031 -3.070312 2.699219 -2.980469 2.78125 -2.867188 C 2.859375 -2.753906 2.914062 -2.625 2.949219 -2.46875 C 2.96875 -2.371094 2.976562 -2.195312 2.976562 -1.949219 L 2.976562 0 L 2.441406 0 L 2.441406 -1.925781 C 2.441406 -2.144531 2.417969 -2.308594 2.378906 -2.417969 C 2.335938 -2.527344 2.261719 -2.613281 2.15625 -2.679688 C 2.050781 -2.742188 1.925781 -2.773438 1.78125 -2.773438 C 1.550781 -2.773438 1.355469 -2.703125 1.1875 -2.558594 C 1.023438 -2.414062 0.941406 -2.136719 0.941406 -1.730469 L 0.941406 0 Z "/>
</g>
<g id="glyph-0-2">
<path d="M 0.304688 0.261719 L 0.828125 0.339844 C 0.847656 0.5 0.910156 0.617188 1.007812 0.691406 C 1.140625 0.792969 1.324219 0.839844 1.554688 0.839844 C 1.804688 0.839844 1.996094 0.792969 2.128906 0.691406 C 2.265625 0.59375 2.355469 0.453125 2.40625 0.273438 C 2.433594 0.164062 2.445312 -0.0664062 2.445312 -0.414062 C 2.210938 -0.136719 1.917969 0 1.566406 0 C 1.128906 0 0.792969 -0.15625 0.554688 -0.472656 C 0.316406 -0.785156 0.195312 -1.164062 0.195312 -1.601562 C 0.195312 -1.90625 0.25 -2.183594 0.359375 -2.4375 C 0.46875 -2.695312 0.628906 -2.890625 0.835938 -3.03125 C 1.042969 -3.171875 1.289062 -3.238281 1.570312 -3.238281 C 1.945312 -3.238281 2.25 -3.089844 2.496094 -2.785156 L 2.496094 -3.167969 L 2.988281 -3.167969 L 2.988281 -0.429688 C 2.988281 0.0625 2.9375 0.414062 2.839844 0.617188 C 2.738281 0.824219 2.578125 0.988281 2.363281 1.105469 C 2.144531 1.226562 1.875 1.285156 1.558594 1.285156 C 1.179688 1.285156 0.875 1.199219 0.640625 1.03125 C 0.410156 0.859375 0.296875 0.605469 0.304688 0.261719 Z M 0.75 -1.640625 C 0.75 -1.226562 0.832031 -0.921875 0.996094 -0.730469 C 1.160156 -0.539062 1.367188 -0.445312 1.617188 -0.445312 C 1.863281 -0.445312 2.070312 -0.539062 2.238281 -0.730469 C 2.40625 -0.917969 2.488281 -1.21875 2.488281 -1.625 C 2.488281 -2.011719 2.402344 -2.304688 2.230469 -2.5 C 2.058594 -2.695312 1.851562 -2.796875 1.609375 -2.796875 C 1.371094 -2.796875 1.167969 -2.699219 1 -2.503906 C 0.832031 -2.308594 0.75 -2.023438 0.75 -1.640625 Z "/>
</g>
<g id="glyph-0-3">
<path d="M 0.40625 -3.757812 L 0.40625 -4.375 L 0.941406 -4.375 L 0.941406 -3.757812 Z M 0.40625 0 L 0.40625 -3.167969 L 0.941406 -3.167969 L 0.941406 0 Z "/>
</g>
</g>
</defs>
<g fill="rgb(12.156863%, 16.078431%, 20%)" fill-opacity="1">
<use xlink:href="#glyph-0-0" x="30" y="25.53125"/>
<use xlink:href="#glyph-0-1" x="33" y="25.53125"/>
<use xlink:href="#glyph-0-2" x="36" y="25.53125"/>
<use xlink:href="#glyph-0-3" x="39" y="25.53125"/>
<use xlink:href="#glyph-0-1" x="40" y="25.53125"/>
<use xlink:href="#glyph-0-0" x="43" y="25.53125"/>
</g>
</svg>
